<svg xmlns="http://www.w3.org/2000/svg" viewBox="0 0 100 100" id="certficate">
  <path d="M79.5 17.8h-44c-4.6 0-8.4 3.8-8.4 8.4v44.2H15.5c-.6 0-1 .4-1 1v4.8c0 4.6 3.8 8.4 8.4 8.4h43.9c3.4 0 6.2-2.8 6.2-6.2V28h11.6c.6 0 1-.4 1-1v-2.7c-.1-3.4-2.7-6.2-6.1-6.5zM22.9 82.5c-3.5 0-6.4-2.9-6.4-6.4v-3.8h41.9v4.4c0 .1 0 .2.1.3.2 2.2 1.3 4.1 2.9 5.5H22.9zM71 25.3c0 .1-.1.2-.1.3v52.7c0 2.3-1.9 4.2-4.2 4.2-3.3 0-6.1-2.6-6.4-5.9v-5.4c0-.6-.4-1-1-1H29.1v-44c0-3.5 2.9-6.4 6.4-6.4H74c-1.7 1.3-2.8 3.3-3 5.5zm12.5.7H72.9v-.4c.3-3.2 2.9-5.7 6.1-5.9 2.5.1 4.4 2.1 4.4 4.6V26z"></path>
  <path d="M60.6 35.5H62l3.8 9.2h-1.9l-.9-2.3h-3.4l-.9 2.4h-1.9l3.8-9.3zm1.8 5.2-1-2.7-1 2.7h2zM41.1 27.3h-6.8c-.6 0-1-.4-1-1s.4-1 1-1h6.8c.6 0 1 .4 1 1s-.4 1-1 1zm25.9 0h-6.8c-.6 0-1-.4-1-1s.4-1 1-1H67c.6 0 1 .4 1 1s-.4 1-1 1z"></path>
  <path d="M64.3 56.1h-30c-.6 0-1-.4-1-1V39.4c0-.6.4-1 1-1h21.2c.6 0 1 .4 1 1s-.4 1-1 1H35.3v13.7h28v-6.9c0-.6.4-1 1-1s1 .4 1 1v7.9c0 .6-.4 1-1 1zm-6.1-20.7H34.3c-.6 0-1-.4-1-1s.4-1 1-1h23.8c.6 0 1 .4 1 1s-.4 1-.9 1zm0 26.8H34.3c-.6 0-1-.4-1-1s.4-1 1-1h23.8c.6 0 1 .4 1 1s-.4 1-.9 1z"></path>
</svg>