<svg xmlns="http://www.w3.org/2000/svg" viewBox="0 0 60 60" id="market-value">
  <path d="M30 41c-2.757 0-5-2.243-5-5h-2c0 3.52 2.613 6.432 6 6.92V45h2v-2.08c3.387-.488 6-3.4 6-6.92 0-3.32-2.195-5.597-6.711-6.958C26.73 27.97 25 26.321 25 24c0-2.757 2.243-5 5-5s5 2.243 5 5h2c0-3.52-2.613-6.432-6-6.92V15h-2v2.08c-3.387.488-6 3.4-6 6.92 0 3.275 2.258 5.616 6.711 6.958C33.32 32.045 35 33.647 35 36c0 2.757-2.243 5-5 5z"></path>
  <path d="M30 7C17.318 7 7 17.318 7 30h2C9 18.42 18.42 9 30 9s21 9.42 21 21-9.42 21-21 21c-6.874 0-13.319-3.412-17.225-9H17v-2h-7v7h2v-2.697C16.329 49.73 22.96 53 30 53c12.682 0 23-10.318 23-23S42.682 7 30 7z"></path>
</svg>