<svg xmlns="http://www.w3.org/2000/svg" enable-background="new 0 0 100 100" viewBox="0 0 100 100" id="notes">
  <path d="M72.7,15.6h-5.3v-2.2c0-0.6-0.4-1-1-1c-0.6,0-1,0.4-1,1v2.2h-9v-2.2c0-0.6-0.4-1-1-1c-0.6,0-1,0.4-1,1v2.2h-9v-2.2
		c0-0.6-0.4-1-1-1c-0.6,0-1,0.4-1,1v2.2h-9v-2.2c0-0.6-0.4-1-1-1c-0.6,0-1,0.4-1,1v2.2h-5.3c-2.8,0-5.1,2.3-5.1,5.1v61.8
		c0,2.8,2.3,5.1,5.1,5.1h45.4c2.8,0,5.1-2.3,5.1-5.1V20.7C77.8,17.9,75.5,15.6,72.7,15.6z M75.8,82.5c0,1.7-1.4,3.1-3.1,3.1H27.3
		c-1.7,0-3.1-1.4-3.1-3.1V20.7c0-1.7,1.4-3.1,3.1-3.1h5.3v2.9c-2,0.5-3.4,2.2-3.4,4.3c0,2.4,2,4.4,4.4,4.4c2.4,0,4.4-2,4.4-4.4
		c0-2.1-1.5-3.8-3.4-4.3v-2.9h9v2.9c-2,0.5-3.4,2.2-3.4,4.3c0,2.4,2,4.4,4.4,4.4c2.4,0,4.4-2,4.4-4.4c0-2.1-1.5-3.8-3.4-4.3v-2.9h9
		v2.9c-2,0.5-3.4,2.2-3.4,4.3c0,2.4,2,4.4,4.4,4.4c2.4,0,4.4-2,4.4-4.4c0-2.1-1.5-3.8-3.4-4.3v-2.9h9v2.9c-2,0.5-3.4,2.2-3.4,4.3
		c0,2.4,2,4.4,4.4,4.4s4.4-2,4.4-4.4c0-2.1-1.5-3.8-3.4-4.3v-2.9h5.3c1.7,0,3.1,1.4,3.1,3.1V82.5z M33.6,25.8c0.6,0,1-0.4,1-1v-2.2
		c0.8,0.4,1.4,1.2,1.4,2.2c0,1.3-1.1,2.4-2.4,2.4c-1.3,0-2.4-1.1-2.4-2.4c0-1,0.6-1.8,1.4-2.2v2.2C32.6,25.3,33,25.8,33.6,25.8z
		 M44.5,25.8c0.6,0,1-0.4,1-1v-2.2c0.8,0.4,1.4,1.2,1.4,2.2c0,1.3-1.1,2.4-2.4,2.4c-1.3,0-2.4-1.1-2.4-2.4c0-1,0.6-1.8,1.4-2.2v2.2
		C43.5,25.3,44,25.8,44.5,25.8z M55.5,25.8c0.6,0,1-0.4,1-1v-2.2c0.8,0.4,1.4,1.2,1.4,2.2c0,1.3-1.1,2.4-2.4,2.4
		c-1.3,0-2.4-1.1-2.4-2.4c0-1,0.6-1.8,1.4-2.2v2.2C54.5,25.3,54.9,25.8,55.5,25.8z M66.4,25.8c0.6,0,1-0.4,1-1v-2.2
		c0.8,0.4,1.4,1.2,1.4,2.2c0,1.3-1.1,2.4-2.4,2.4c-1.3,0-2.4-1.1-2.4-2.4c0-1,0.6-1.8,1.4-2.2v2.2C65.4,25.3,65.9,25.8,66.4,25.8z"></path>
  <path d="M71 37.9H29c-.6 0-1 .4-1 1 0 .6.4 1 1 1h42c.6 0 1-.4 1-1C72 38.4 71.6 37.9 71 37.9zM71 45.9H29c-.6 0-1 .4-1 1 0 .6.4 1 1 1h42c.6 0 1-.4 1-1C72 46.4 71.6 45.9 71 45.9zM71 53.9H29c-.6 0-1 .4-1 1 0 .6.4 1 1 1h42c.6 0 1-.4 1-1C72 54.4 71.6 53.9 71 53.9zM71 61.9H29c-.6 0-1 .4-1 1 0 .6.4 1 1 1h42c.6 0 1-.4 1-1C72 62.4 71.6 61.9 71 61.9zM71 69.9H29c-.6 0-1 .4-1 1 0 .6.4 1 1 1h42c.6 0 1-.4 1-1C72 70.4 71.6 69.9 71 69.9zM71 77.9H29c-.6 0-1 .4-1 1 0 .6.4 1 1 1h42c.6 0 1-.4 1-1C72 78.4 71.6 77.9 71 77.9z"></path>
</svg>