<svg xmlns="http://www.w3.org/2000/svg" xmlns:xlink="http://www.w3.org/1999/xlink" viewBox="0 0 24 24" id="DownArrow">
  <defs>
    <linearGradient id="a">
      <stop offset="0" stop-color="#ff6666" class="stopColorff00ff svgShape"></stop>
      <stop offset="1" stop-color="#ff0000" class="stopColor0000ff svgShape"></stop>
    </linearGradient>
    <linearGradient xlink:href="#a" id="b" x1="2.132" x2="21.95" y1="352.517" y2="332.7" gradientTransform="translate(0 -40)" gradientUnits="userSpaceOnUse"></linearGradient>
  </defs>
  <path fill="url(#b)" d="m 12,312.64974 c -0.55229,0 -1,-0.44772 -1,-1 V 296.0638 l -4.29297,4.29297 a 1,1 0 0 1 -1.41406,0 1,1 0 0 1 0,-1.41406 l 6,-6 a 1.0001,1.0001 0 0 1 0.73633,-0.29297 1.0001,1.0001 0 0 1 0.67773,0.29297 l 6,6 a 1,1 0 0 1 0,1.41406 1,1 0 0 1 -1.41406,0 L 13,296.0638 v 15.58594 c 0,0.55228 -0.44771,1 -1,1 z" color="#000" enable-background="accumulate" font-family="sans-serif" font-weight="400" overflow="visible" style="line-height:normal;font-variant-ligatures:normal;font-variant-position:normal;font-variant-caps:normal;font-variant-numeric:normal;font-variant-alternates:normal;font-variant-east-asian:normal;font-feature-settings:normal;font-variation-settings:normal;text-indent:0;text-align:start;text-decoration-line:none;text-decoration-style:solid;text-decoration-color:#000;text-transform:none;text-orientation:mixed;white-space:normal;shape-padding:0;shape-margin:0;inline-size:0;isolation:auto;mix-blend-mode:normal;solid-color:#000;solid-opacity:1" transform="matrix(1 0 0 -1 0 314.65)"></path>
</svg>